<svg xmlns="http://www.w3.org/2000/svg" xmlns:v="https://svgstorm.com"
viewBox = "0 0 1024 1024"
width="1024"
height="1024">
<g fill="None" fill-opacity="0.0" stroke="#FEFEFE" stroke-opacity="1.00" stroke-width="0.3"><path d="
M 0.00 1024.00 
L 1024.00 1024.00
L 1024.00 0.00
L 0.00 0.00
L 0.00 1024.00
M 756.00 386.00 
C 656.23 388.33 554.52 386.33 454.00 387.00
C 454.00 396.00 454.00 405.00 454.00 414.00
C 522.75 445.38 590.41 479.15 659.00 511.00
C 682.53 522.46 706.26 533.99 730.08 544.92 C 740.15 552.40 761.74 552.33 757.00 570.00 C 757.00 587.67 757.00 605.33 757.00 623.00
C 757.00 694.67 757.00 766.34 757.00 838.00
C 596.83 837.33 435.35 839.33 276.00 837.00
C 274.33 649.06 274.33 457.86 276.00 270.00
C 283.25 238.31 316.93 215.37 350.00 222.00 C 473.00 222.00 596.00 222.00 719.00 222.00 C 731.60 223.36 747.14 219.26 757.92 224.08 C 758.11 265.05 757.95 306.03 758.00 347.00 C 756.70 359.68 760.63 374.91 756.00 386.00 Z"/>
</g>
<g fill="None" fill-opacity="0.0" stroke="#55D43E" stroke-opacity="1.00" stroke-width="0.3"><path d="
M 276.00 270.00 
C 276.00 308.00 276.00 346.00 276.00 384.00
C 278.03 382.23 276.53 378.52 277.00 376.00
C 279.08 378.10 277.50 382.15 278.00 385.00
C 279.04 382.23 279.93 382.41 283.00 383.00
C 274.34 390.57 293.89 378.76 288.00 386.00
C 294.13 389.43 303.57 376.91 304.00 386.00
C 308.71 381.83 319.17 388.52 328.00 386.00
C 326.36 383.41 321.57 386.66 320.00 384.00
C 323.08 384.14 329.46 381.42 329.00 386.00
C 332.00 382.37 340.48 389.07 339.00 383.00
C 344.14 387.85 352.75 385.48 360.00 386.00
C 356.69 382.37 343.08 388.74 345.00 382.00
C 348.46 384.86 354.82 384.00 360.00 383.00
C 360.96 391.33 372.20 380.10 369.00 386.00
C 371.47 384.24 372.00 384.83 375.00 386.00
C 374.70 382.95 379.84 382.68 377.00 386.00
C 382.20 382.19 388.99 387.03 397.00 386.00 C 401.84 381.26 413.34 388.75 412.00 383.00
C 425.26 389.51 437.33 380.58 449.00 388.00
C 450.66 381.17 461.57 387.25 467.08 383.94 C 523.23 385.63 576.62 383.01 631.00 385.00 C 638.79 381.37 651.79 389.67 657.00 382.00
C 664.54 388.63 677.73 381.38 686.23 384.79 C 697.43 382.68 711.06 387.88 721.75 383.41 C 731.44 381.61 746.18 388.29 754.00 382.00
C 753.26 384.10 752.42 386.74 756.00 386.00
C 760.63 374.91 756.70 359.68 758.00 347.00 C 757.95 306.03 758.11 265.05 757.92 224.08 C 747.14 219.26 731.60 223.36 719.00 222.00 C 596.00 222.00 473.00 222.00 350.00 222.00 C 316.93 215.37 283.25 238.31 276.00 270.00 Z"/>
</g>
<g fill="None" fill-opacity="0.0" stroke="#A1D697" stroke-opacity="1.00" stroke-width="0.3"><path d="
M 276.00 837.00 
C 276.00 767.00 276.00 697.00 276.00 627.00
C 276.00 588.67 276.00 550.33 276.00 512.00
C 276.00 469.33 276.00 426.67 276.00 384.00
C 276.00 346.00 276.00 308.00 276.00 270.00
C 274.33 457.86 274.33 649.06 276.00 837.00 Z"/>
</g>
<g fill="None" fill-opacity="0.0" stroke="#51C03E" stroke-opacity="1.00" stroke-width="0.3"><path d="
M 276.00 384.00 
C 276.00 426.67 276.00 469.33 276.00 512.00
C 278.21 512.71 279.46 511.10 279.00 509.00
C 282.66 512.96 293.08 514.17 297.00 510.00
C 298.73 512.62 303.43 510.51 302.00 516.00
C 304.34 515.10 303.67 512.82 303.00 511.00
C 305.70 513.77 312.57 509.17 313.00 515.00
C 315.35 512.70 316.90 511.75 320.00 514.00
C 320.00 511.19 324.13 512.54 322.00 509.00
C 326.96 516.64 336.94 506.89 339.00 516.00
C 341.33 509.17 348.09 516.72 348.00 510.00
C 349.64 513.25 352.86 512.05 357.23 512.21 C 361.43 510.93 368.44 515.29 370.00 511.00
C 372.19 513.85 374.09 514.50 376.00 511.00
C 378.66 511.84 379.94 512.13 383.00 513.00
C 379.31 507.27 384.45 510.37 385.71 511.64 C 391.08 510.44 390.61 515.30 393.00 518.00
C 394.20 515.79 395.09 514.65 393.00 512.00
C 396.96 512.78 398.23 514.38 401.00 510.00
C 402.03 512.56 404.38 514.11 403.00 510.00
C 405.75 513.28 418.57 507.07 419.00 515.00
C 425.15 509.20 430.59 512.75 438.00 514.00
C 436.27 512.26 433.17 512.39 431.00 511.00
C 435.40 510.42 449.40 508.02 447.00 514.00
C 450.37 512.29 455.99 511.95 457.00 516.00
C 460.77 514.21 456.13 512.41 456.00 510.00
C 458.64 510.34 460.32 512.46 463.00 511.00
C 461.38 513.25 460.66 515.34 464.00 516.00
C 464.10 504.98 478.33 517.77 481.00 510.00
C 479.92 513.44 482.50 514.07 485.00 515.00
C 485.05 510.91 488.78 508.44 489.00 514.00
C 490.35 511.85 493.58 511.91 495.00 514.00
C 498.07 507.85 511.02 513.39 516.00 511.00
C 517.68 517.08 524.26 511.09 528.03 513.02 C 533.77 510.21 536.79 512.43 544.00 511.00
C 544.60 518.52 553.25 509.51 555.00 515.00
C 553.35 509.56 556.79 514.37 559.00 515.00
C 561.81 508.27 569.41 513.66 578.01 512.99 C 588.12 513.86 593.97 511.44 603.00 511.00
C 600.32 512.97 602.11 515.37 604.00 517.00
C 606.38 516.20 609.09 514.62 613.00 516.00
C 615.93 514.24 611.49 512.20 612.00 510.00
C 618.06 514.23 620.25 507.90 624.00 513.00
C 625.92 508.89 630.91 515.10 634.00 511.00
C 635.61 515.03 636.59 511.79 640.00 514.00
C 639.93 508.96 645.51 513.89 648.00 511.00
C 649.41 514.52 649.42 513.28 651.00 511.00
C 650.87 517.58 653.94 509.36 658.00 515.00
C 659.36 513.62 657.67 512.47 659.00 511.00
C 590.41 479.15 522.75 445.38 454.00 414.00
C 454.00 405.00 454.00 396.00 454.00 387.00
C 554.52 386.33 656.23 388.33 756.00 386.00
C 752.42 386.74 753.26 384.10 754.00 382.00
C 746.18 388.29 731.44 381.61 721.75 383.41 C 711.06 387.88 697.43 382.68 686.23 384.79 C 677.73 381.38 664.54 388.63 657.00 382.00
C 651.79 389.67 638.79 381.37 631.00 385.00 C 576.62 383.01 523.23 385.63 467.08 383.94 C 461.57 387.25 450.66 381.17 449.00 388.00
C 437.33 380.58 425.26 389.51 412.00 383.00
C 413.34 388.75 401.84 381.26 397.00 386.00 C 388.99 387.03 382.20 382.19 377.00 386.00
C 379.84 382.68 374.70 382.95 375.00 386.00
C 372.00 384.83 371.47 384.24 369.00 386.00
C 372.20 380.10 360.96 391.33 360.00 383.00
C 354.82 384.00 348.46 384.86 345.00 382.00
C 343.08 388.74 356.69 382.37 360.00 386.00
C 352.75 385.48 344.14 387.85 339.00 383.00
C 340.48 389.07 332.00 382.37 329.00 386.00
C 329.46 381.42 323.08 384.14 320.00 384.00
C 321.57 386.66 326.36 383.41 328.00 386.00
C 319.17 388.52 308.71 381.83 304.00 386.00
C 303.57 376.91 294.13 389.43 288.00 386.00
C 293.89 378.76 274.34 390.57 283.00 383.00
C 279.93 382.41 279.04 382.23 278.00 385.00
C 277.50 382.15 279.08 378.10 277.00 376.00
C 276.53 378.52 278.03 382.23 276.00 384.00 Z"/>
</g>
<g fill="None" fill-opacity="0.0" stroke="#4EAF3D" stroke-opacity="1.00" stroke-width="0.3"><path d="
M 276.00 512.00 
C 276.00 550.33 276.00 588.67 276.00 627.00
C 280.69 629.64 274.22 621.22 279.00 622.00
C 279.26 624.34 280.43 626.96 281.00 630.00
C 281.23 620.32 286.60 629.50 288.00 623.00
C 288.02 625.34 291.47 626.08 291.00 629.00
C 294.03 629.62 292.89 624.37 296.00 625.00
C 296.09 628.86 298.33 625.81 301.00 624.00
C 307.02 628.90 314.11 622.31 318.00 626.00
C 319.73 624.56 325.45 618.68 324.00 626.00
C 325.82 616.83 335.25 629.76 339.00 624.00
C 341.63 624.15 341.08 628.57 345.00 627.00
C 340.95 623.05 346.76 626.58 347.30 624.29 C 350.30 627.74 351.06 620.08 351.00 627.00
C 359.34 620.79 371.10 631.35 379.00 623.00
C 381.37 623.62 382.60 625.43 384.00 627.00
C 383.51 623.24 388.21 620.59 388.00 626.00
C 390.24 625.57 393.15 622.20 395.00 627.00
C 397.56 625.40 400.52 622.02 402.00 627.00
C 400.64 623.62 404.66 621.49 404.00 626.00
C 406.43 623.05 410.80 627.59 415.02 624.02 C 419.62 624.55 424.62 622.75 427.00 627.00
C 426.77 623.42 431.24 622.38 433.00 625.00
C 434.49 623.78 435.37 620.63 438.00 621.00
C 435.98 624.97 437.71 624.68 440.00 622.00
C 439.37 627.74 441.03 623.11 444.00 625.00
C 444.00 608.67 444.00 592.33 444.00 576.00
C 479.40 594.21 514.68 613.33 550.00 632.00
C 550.01 626.52 556.35 623.36 557.92 625.14 C 561.49 625.84 565.89 622.14 568.00 628.00
C 568.64 624.17 571.57 623.03 572.00 628.00
C 575.15 623.73 577.63 627.62 579.00 623.00
C 579.80 626.22 582.26 625.50 583.00 623.00
C 586.25 622.70 585.00 625.29 586.00 627.00
C 589.44 625.48 588.05 619.72 590.00 627.00
C 590.90 624.79 594.10 622.99 594.00 627.00
C 599.66 624.46 606.32 623.36 612.00 622.00
C 607.49 625.02 614.93 628.86 617.25 624.25 C 623.08 624.20 624.86 625.88 630.00 623.00
C 631.60 627.29 631.90 624.16 634.00 622.00
C 637.40 626.47 642.75 625.63 646.00 628.00
C 646.57 625.51 648.34 623.56 649.00 621.00
C 649.89 624.67 652.92 625.70 656.00 623.00
C 657.44 628.04 662.71 621.51 664.00 627.00
C 667.97 627.08 670.93 623.71 675.00 624.00
C 668.89 630.14 687.19 629.61 678.00 624.00
C 681.53 624.32 684.88 627.90 688.00 624.00
C 685.84 627.95 689.33 628.51 689.00 624.00
C 691.21 624.47 692.99 624.79 693.00 628.00
C 694.27 626.46 696.11 625.13 698.00 624.00
C 702.04 626.68 712.81 626.02 720.00 625.00
C 715.86 628.85 722.74 628.64 721.00 624.00
C 723.68 627.64 727.67 621.31 727.00 628.00
C 734.31 625.41 745.07 624.83 751.00 626.00
C 751.42 620.42 753.44 624.79 757.00 623.00
C 757.00 605.33 757.00 587.67 757.00 570.00 C 761.74 552.33 740.15 552.40 730.08 544.92 C 706.26 533.99 682.53 522.46 659.00 511.00
C 657.67 512.47 659.36 513.62 658.00 515.00
C 653.94 509.36 650.87 517.58 651.00 511.00
C 649.42 513.28 649.41 514.52 648.00 511.00
C 645.51 513.89 639.93 508.96 640.00 514.00
C 636.59 511.79 635.61 515.03 634.00 511.00
C 630.91 515.10 625.92 508.89 624.00 513.00
C 620.25 507.90 618.06 514.23 612.00 510.00
C 611.49 512.20 615.93 514.24 613.00 516.00
C 609.09 514.62 606.38 516.20 604.00 517.00
C 602.11 515.37 600.32 512.97 603.00 511.00
C 593.97 511.44 588.12 513.86 578.01 512.99 C 569.41 513.66 561.81 508.27 559.00 515.00
C 556.79 514.37 553.35 509.56 555.00 515.00
C 553.25 509.51 544.60 518.52 544.00 511.00
C 536.79 512.43 533.77 510.21 528.03 513.02 C 524.26 511.09 517.68 517.08 516.00 511.00
C 511.02 513.39 498.07 507.85 495.00 514.00
C 493.58 511.91 490.35 511.85 489.00 514.00
C 488.78 508.44 485.05 510.91 485.00 515.00
C 482.50 514.07 479.92 513.44 481.00 510.00
C 478.33 517.77 464.10 504.98 464.00 516.00
C 460.66 515.34 461.38 513.25 463.00 511.00
C 460.32 512.46 458.64 510.34 456.00 510.00
C 456.13 512.41 460.77 514.21 457.00 516.00
C 455.99 511.95 450.37 512.29 447.00 514.00
C 449.40 508.02 435.40 510.42 431.00 511.00
C 433.17 512.39 436.27 512.26 438.00 514.00
C 430.59 512.75 425.15 509.20 419.00 515.00
C 418.57 507.07 405.75 513.28 403.00 510.00
C 404.38 514.11 402.03 512.56 401.00 510.00
C 398.23 514.38 396.96 512.78 393.00 512.00
C 395.09 514.65 394.20 515.79 393.00 518.00
C 390.61 515.30 391.08 510.44 385.71 511.64 C 384.45 510.37 379.31 507.27 383.00 513.00
C 379.94 512.13 378.66 511.84 376.00 511.00
C 374.09 514.50 372.19 513.85 370.00 511.00
C 368.44 515.29 361.43 510.93 357.23 512.21 C 352.86 512.05 349.64 513.25 348.00 510.00
C 348.09 516.72 341.33 509.17 339.00 516.00
C 336.94 506.89 326.96 516.64 322.00 509.00
C 324.13 512.54 320.00 511.19 320.00 514.00
C 316.90 511.75 315.35 512.70 313.00 515.00
C 312.57 509.17 305.70 513.77 303.00 511.00
C 303.67 512.82 304.34 515.10 302.00 516.00
C 303.43 510.51 298.73 512.62 297.00 510.00
C 293.08 514.17 282.66 512.96 279.00 509.00
C 279.46 511.10 278.21 512.71 276.00 512.00 Z"/>
</g>
<g fill="None" fill-opacity="0.0" stroke="#FCFDFC" stroke-opacity="1.00" stroke-width="0.3"><path d="
M 444.00 625.00 
C 444.00 635.67 444.00 646.33 444.00 657.00 C 446.45 664.92 438.20 682.94 450.00 683.00 C 493.00 683.00 536.00 683.00 579.00 683.00
C 579.00 671.00 579.00 659.00 579.00 647.00
C 569.09 642.76 559.89 636.59 550.00 632.00
C 514.68 613.33 479.40 594.21 444.00 576.00
C 444.00 592.33 444.00 608.67 444.00 625.00 Z"/>
</g>
<g fill="None" fill-opacity="0.0" stroke="#4B9D3D" stroke-opacity="1.00" stroke-width="0.3"><path d="
M 276.00 627.00 
C 276.00 697.00 276.00 767.00 276.00 837.00
C 435.35 839.33 596.83 837.33 757.00 838.00
C 757.00 766.34 757.00 694.67 757.00 623.00
C 753.44 624.79 751.42 620.42 751.00 626.00
C 745.07 624.83 734.31 625.41 727.00 628.00
C 727.67 621.31 723.68 627.64 721.00 624.00
C 722.74 628.64 715.86 628.85 720.00 625.00
C 712.81 626.02 702.04 626.68 698.00 624.00
C 696.11 625.13 694.27 626.46 693.00 628.00
C 692.99 624.79 691.21 624.47 689.00 624.00
C 689.33 628.51 685.84 627.95 688.00 624.00
C 684.88 627.90 681.53 624.32 678.00 624.00
C 687.19 629.61 668.89 630.14 675.00 624.00
C 670.93 623.71 667.97 627.08 664.00 627.00
C 662.71 621.51 657.44 628.04 656.00 623.00
C 652.92 625.70 649.89 624.67 649.00 621.00
C 648.34 623.56 646.57 625.51 646.00 628.00
C 642.75 625.63 637.40 626.47 634.00 622.00
C 631.90 624.16 631.60 627.29 630.00 623.00
C 624.86 625.88 623.08 624.20 617.25 624.25 C 614.93 628.86 607.49 625.02 612.00 622.00
C 606.32 623.36 599.66 624.46 594.00 627.00
C 594.10 622.99 590.90 624.79 590.00 627.00
C 588.05 619.72 589.44 625.48 586.00 627.00
C 585.00 625.29 586.25 622.70 583.00 623.00
C 582.26 625.50 579.80 626.22 579.00 623.00
C 577.63 627.62 575.15 623.73 572.00 628.00
C 571.57 623.03 568.64 624.17 568.00 628.00
C 565.89 622.14 561.49 625.84 557.92 625.14 C 556.35 623.36 550.01 626.52 550.00 632.00
C 559.89 636.59 569.09 642.76 579.00 647.00
C 579.00 659.00 579.00 671.00 579.00 683.00
C 536.00 683.00 493.00 683.00 450.00 683.00 C 438.20 682.94 446.45 664.92 444.00 657.00 C 444.00 646.33 444.00 635.67 444.00 625.00
C 441.03 623.11 439.37 627.74 440.00 622.00
C 437.71 624.68 435.98 624.97 438.00 621.00
C 435.37 620.63 434.49 623.78 433.00 625.00
C 431.24 622.38 426.77 623.42 427.00 627.00
C 424.62 622.75 419.62 624.55 415.02 624.02 C 410.80 627.59 406.43 623.05 404.00 626.00
C 404.66 621.49 400.64 623.62 402.00 627.00
C 400.52 622.02 397.56 625.40 395.00 627.00
C 393.15 622.20 390.24 625.57 388.00 626.00
C 388.21 620.59 383.51 623.24 384.00 627.00
C 382.60 625.43 381.37 623.62 379.00 623.00
C 371.10 631.35 359.34 620.79 351.00 627.00
C 351.06 620.08 350.30 627.74 347.30 624.29 C 346.76 626.58 340.95 623.05 345.00 627.00
C 341.08 628.57 341.63 624.15 339.00 624.00
C 335.25 629.76 325.82 616.83 324.00 626.00
C 325.45 618.68 319.73 624.56 318.00 626.00
C 314.11 622.31 307.02 628.90 301.00 624.00
C 298.33 625.81 296.09 628.86 296.00 625.00
C 292.89 624.37 294.03 629.62 291.00 629.00
C 291.47 626.08 288.02 625.34 288.00 623.00
C 286.60 629.50 281.23 620.32 281.00 630.00
C 280.43 626.96 279.26 624.34 279.00 622.00
C 274.22 621.22 280.69 629.64 276.00 627.00 Z"/>
</g>
<g fill="#FEFEFE" fill-opacity="1.00" stroke="None">
<path d="
M 0.00 1024.00 
L 1024.00 1024.00
L 1024.00 0.00
L 0.00 0.00
L 0.00 1024.00
M 756.00 386.00 
C 656.23 388.33 554.52 386.33 454.00 387.00
C 454.00 396.00 454.00 405.00 454.00 414.00
C 522.75 445.38 590.41 479.15 659.00 511.00
C 682.53 522.46 706.26 533.99 730.08 544.92 C 740.15 552.40 761.74 552.33 757.00 570.00 C 757.00 587.67 757.00 605.33 757.00 623.00
C 757.00 694.67 757.00 766.34 757.00 838.00
C 596.83 837.33 435.35 839.33 276.00 837.00
C 274.33 649.06 274.33 457.86 276.00 270.00
C 283.25 238.31 316.93 215.37 350.00 222.00 C 473.00 222.00 596.00 222.00 719.00 222.00 C 731.60 223.36 747.14 219.26 757.92 224.08 C 758.11 265.05 757.95 306.03 758.00 347.00 C 756.70 359.68 760.63 374.91 756.00 386.00 Z"/>
</g>
<g fill="#55D43E" fill-opacity="1.00" stroke="None">
<path d="
M 276.00 270.00 
C 276.00 308.00 276.00 346.00 276.00 384.00
C 278.03 382.23 276.53 378.52 277.00 376.00
C 279.08 378.10 277.50 382.15 278.00 385.00
C 279.04 382.23 279.93 382.41 283.00 383.00
C 274.34 390.57 293.89 378.76 288.00 386.00
C 294.13 389.43 303.57 376.91 304.00 386.00
C 308.71 381.83 319.17 388.52 328.00 386.00
C 326.36 383.41 321.57 386.66 320.00 384.00
C 323.08 384.14 329.46 381.42 329.00 386.00
C 332.00 382.37 340.48 389.07 339.00 383.00
C 344.14 387.85 352.75 385.48 360.00 386.00
C 356.69 382.37 343.08 388.74 345.00 382.00
C 348.46 384.86 354.82 384.00 360.00 383.00
C 360.96 391.33 372.20 380.10 369.00 386.00
C 371.47 384.24 372.00 384.83 375.00 386.00
C 374.70 382.95 379.84 382.68 377.00 386.00
C 382.20 382.19 388.99 387.03 397.00 386.00 C 401.84 381.26 413.34 388.75 412.00 383.00
C 425.26 389.51 437.33 380.58 449.00 388.00
C 450.66 381.17 461.57 387.25 467.08 383.94 C 523.23 385.63 576.62 383.01 631.00 385.00 C 638.79 381.37 651.79 389.67 657.00 382.00
C 664.54 388.63 677.73 381.38 686.23 384.79 C 697.43 382.68 711.06 387.88 721.75 383.41 C 731.44 381.61 746.18 388.29 754.00 382.00
C 753.26 384.10 752.42 386.74 756.00 386.00
C 760.63 374.91 756.70 359.68 758.00 347.00 C 757.95 306.03 758.11 265.05 757.92 224.08 C 747.14 219.26 731.60 223.36 719.00 222.00 C 596.00 222.00 473.00 222.00 350.00 222.00 C 316.93 215.37 283.25 238.31 276.00 270.00 Z"/>
</g>
<g fill="#A1D697" fill-opacity="1.00" stroke="None">
<path d="
M 276.00 837.00 
C 276.00 767.00 276.00 697.00 276.00 627.00
C 276.00 588.67 276.00 550.33 276.00 512.00
C 276.00 469.33 276.00 426.67 276.00 384.00
C 276.00 346.00 276.00 308.00 276.00 270.00
C 274.33 457.86 274.33 649.06 276.00 837.00 Z"/>
</g>
<g fill="#51C03E" fill-opacity="1.00" stroke="None">
<path d="
M 276.00 384.00 
C 276.00 426.67 276.00 469.33 276.00 512.00
C 278.21 512.71 279.46 511.10 279.00 509.00
C 282.66 512.96 293.08 514.17 297.00 510.00
C 298.73 512.62 303.43 510.51 302.00 516.00
C 304.34 515.10 303.67 512.82 303.00 511.00
C 305.70 513.77 312.57 509.17 313.00 515.00
C 315.35 512.70 316.90 511.75 320.00 514.00
C 320.00 511.19 324.13 512.54 322.00 509.00
C 326.96 516.64 336.94 506.89 339.00 516.00
C 341.33 509.17 348.09 516.72 348.00 510.00
C 349.64 513.25 352.86 512.05 357.23 512.21 C 361.43 510.93 368.44 515.29 370.00 511.00
C 372.19 513.85 374.09 514.50 376.00 511.00
C 378.66 511.84 379.94 512.13 383.00 513.00
C 379.31 507.27 384.45 510.37 385.71 511.64 C 391.08 510.44 390.61 515.30 393.00 518.00
C 394.20 515.79 395.09 514.65 393.00 512.00
C 396.96 512.78 398.23 514.38 401.00 510.00
C 402.03 512.56 404.38 514.11 403.00 510.00
C 405.75 513.28 418.57 507.07 419.00 515.00
C 425.15 509.20 430.59 512.75 438.00 514.00
C 436.27 512.26 433.17 512.39 431.00 511.00
C 435.40 510.42 449.40 508.02 447.00 514.00
C 450.37 512.29 455.99 511.95 457.00 516.00
C 460.77 514.21 456.13 512.41 456.00 510.00
C 458.64 510.34 460.32 512.46 463.00 511.00
C 461.38 513.25 460.66 515.34 464.00 516.00
C 464.10 504.98 478.33 517.77 481.00 510.00
C 479.92 513.44 482.50 514.07 485.00 515.00
C 485.05 510.91 488.78 508.44 489.00 514.00
C 490.35 511.85 493.58 511.91 495.00 514.00
C 498.07 507.85 511.02 513.39 516.00 511.00
C 517.68 517.08 524.26 511.09 528.03 513.02 C 533.77 510.21 536.79 512.43 544.00 511.00
C 544.60 518.52 553.25 509.51 555.00 515.00
C 553.35 509.56 556.79 514.37 559.00 515.00
C 561.81 508.27 569.41 513.66 578.01 512.99 C 588.12 513.86 593.97 511.44 603.00 511.00
C 600.32 512.97 602.11 515.37 604.00 517.00
C 606.38 516.20 609.09 514.62 613.00 516.00
C 615.93 514.24 611.49 512.20 612.00 510.00
C 618.06 514.23 620.25 507.90 624.00 513.00
C 625.92 508.89 630.91 515.10 634.00 511.00
C 635.61 515.03 636.59 511.79 640.00 514.00
C 639.93 508.96 645.51 513.89 648.00 511.00
C 649.41 514.52 649.42 513.28 651.00 511.00
C 650.87 517.58 653.94 509.36 658.00 515.00
C 659.36 513.62 657.67 512.47 659.00 511.00
C 590.41 479.15 522.75 445.38 454.00 414.00
C 454.00 405.00 454.00 396.00 454.00 387.00
C 554.52 386.33 656.23 388.33 756.00 386.00
C 752.42 386.74 753.26 384.10 754.00 382.00
C 746.18 388.29 731.44 381.61 721.75 383.41 C 711.06 387.88 697.43 382.68 686.23 384.79 C 677.73 381.38 664.54 388.63 657.00 382.00
C 651.79 389.67 638.79 381.37 631.00 385.00 C 576.62 383.01 523.23 385.63 467.08 383.94 C 461.57 387.25 450.66 381.17 449.00 388.00
C 437.33 380.58 425.26 389.51 412.00 383.00
C 413.34 388.75 401.84 381.26 397.00 386.00 C 388.99 387.03 382.20 382.19 377.00 386.00
C 379.84 382.68 374.70 382.95 375.00 386.00
C 372.00 384.83 371.47 384.24 369.00 386.00
C 372.20 380.10 360.96 391.33 360.00 383.00
C 354.82 384.00 348.46 384.86 345.00 382.00
C 343.08 388.74 356.69 382.37 360.00 386.00
C 352.75 385.48 344.14 387.85 339.00 383.00
C 340.48 389.07 332.00 382.37 329.00 386.00
C 329.46 381.42 323.08 384.14 320.00 384.00
C 321.57 386.66 326.36 383.41 328.00 386.00
C 319.17 388.52 308.71 381.83 304.00 386.00
C 303.57 376.91 294.13 389.43 288.00 386.00
C 293.89 378.76 274.34 390.57 283.00 383.00
C 279.93 382.41 279.04 382.23 278.00 385.00
C 277.50 382.15 279.08 378.10 277.00 376.00
C 276.53 378.52 278.03 382.23 276.00 384.00 Z"/>
</g>
<g fill="#4EAF3D" fill-opacity="1.00" stroke="None">
<path d="
M 276.00 512.00 
C 276.00 550.33 276.00 588.67 276.00 627.00
C 280.69 629.64 274.22 621.22 279.00 622.00
C 279.26 624.34 280.43 626.96 281.00 630.00
C 281.23 620.32 286.60 629.50 288.00 623.00
C 288.02 625.34 291.47 626.08 291.00 629.00
C 294.03 629.62 292.89 624.37 296.00 625.00
C 296.09 628.86 298.33 625.81 301.00 624.00
C 307.02 628.90 314.11 622.31 318.00 626.00
C 319.73 624.56 325.45 618.68 324.00 626.00
C 325.82 616.83 335.25 629.76 339.00 624.00
C 341.63 624.15 341.08 628.57 345.00 627.00
C 340.95 623.05 346.76 626.58 347.30 624.29 C 350.30 627.74 351.06 620.08 351.00 627.00
C 359.34 620.79 371.10 631.35 379.00 623.00
C 381.37 623.62 382.60 625.43 384.00 627.00
C 383.51 623.24 388.21 620.59 388.00 626.00
C 390.24 625.57 393.15 622.20 395.00 627.00
C 397.56 625.40 400.52 622.02 402.00 627.00
C 400.64 623.62 404.66 621.49 404.00 626.00
C 406.43 623.05 410.80 627.59 415.02 624.02 C 419.62 624.55 424.62 622.75 427.00 627.00
C 426.77 623.42 431.24 622.38 433.00 625.00
C 434.49 623.78 435.37 620.63 438.00 621.00
C 435.98 624.97 437.71 624.68 440.00 622.00
C 439.37 627.74 441.03 623.11 444.00 625.00
C 444.00 608.67 444.00 592.33 444.00 576.00
C 479.40 594.21 514.68 613.33 550.00 632.00
C 550.01 626.52 556.35 623.36 557.92 625.14 C 561.49 625.84 565.89 622.14 568.00 628.00
C 568.64 624.17 571.57 623.03 572.00 628.00
C 575.15 623.73 577.63 627.62 579.00 623.00
C 579.80 626.22 582.26 625.50 583.00 623.00
C 586.25 622.70 585.00 625.29 586.00 627.00
C 589.44 625.48 588.05 619.72 590.00 627.00
C 590.90 624.79 594.10 622.99 594.00 627.00
C 599.66 624.46 606.32 623.36 612.00 622.00
C 607.49 625.02 614.93 628.86 617.25 624.25 C 623.08 624.20 624.86 625.88 630.00 623.00
C 631.60 627.29 631.90 624.16 634.00 622.00
C 637.40 626.47 642.75 625.63 646.00 628.00
C 646.57 625.51 648.34 623.56 649.00 621.00
C 649.89 624.67 652.92 625.70 656.00 623.00
C 657.44 628.04 662.71 621.51 664.00 627.00
C 667.97 627.08 670.93 623.71 675.00 624.00
C 668.89 630.14 687.19 629.61 678.00 624.00
C 681.53 624.32 684.88 627.90 688.00 624.00
C 685.84 627.95 689.33 628.51 689.00 624.00
C 691.21 624.47 692.99 624.79 693.00 628.00
C 694.27 626.46 696.11 625.13 698.00 624.00
C 702.04 626.68 712.81 626.02 720.00 625.00
C 715.86 628.85 722.74 628.64 721.00 624.00
C 723.68 627.64 727.67 621.31 727.00 628.00
C 734.31 625.41 745.07 624.83 751.00 626.00
C 751.42 620.42 753.44 624.79 757.00 623.00
C 757.00 605.33 757.00 587.67 757.00 570.00 C 761.74 552.33 740.15 552.40 730.08 544.92 C 706.26 533.99 682.53 522.46 659.00 511.00
C 657.67 512.47 659.36 513.62 658.00 515.00
C 653.94 509.36 650.87 517.58 651.00 511.00
C 649.42 513.28 649.41 514.52 648.00 511.00
C 645.51 513.89 639.93 508.96 640.00 514.00
C 636.59 511.79 635.61 515.03 634.00 511.00
C 630.91 515.10 625.92 508.89 624.00 513.00
C 620.25 507.90 618.06 514.23 612.00 510.00
C 611.49 512.20 615.93 514.24 613.00 516.00
C 609.09 514.62 606.38 516.20 604.00 517.00
C 602.11 515.37 600.32 512.97 603.00 511.00
C 593.97 511.44 588.12 513.86 578.01 512.99 C 569.41 513.66 561.81 508.27 559.00 515.00
C 556.79 514.37 553.35 509.56 555.00 515.00
C 553.25 509.51 544.60 518.52 544.00 511.00
C 536.79 512.43 533.77 510.21 528.03 513.02 C 524.26 511.09 517.68 517.08 516.00 511.00
C 511.02 513.39 498.07 507.85 495.00 514.00
C 493.58 511.91 490.35 511.85 489.00 514.00
C 488.78 508.44 485.05 510.91 485.00 515.00
C 482.50 514.07 479.92 513.44 481.00 510.00
C 478.33 517.77 464.10 504.98 464.00 516.00
C 460.66 515.34 461.38 513.25 463.00 511.00
C 460.32 512.46 458.64 510.34 456.00 510.00
C 456.13 512.41 460.77 514.21 457.00 516.00
C 455.99 511.95 450.37 512.29 447.00 514.00
C 449.40 508.02 435.40 510.42 431.00 511.00
C 433.17 512.39 436.27 512.26 438.00 514.00
C 430.59 512.75 425.15 509.20 419.00 515.00
C 418.57 507.07 405.75 513.28 403.00 510.00
C 404.38 514.11 402.03 512.56 401.00 510.00
C 398.23 514.38 396.96 512.78 393.00 512.00
C 395.09 514.65 394.20 515.79 393.00 518.00
C 390.61 515.30 391.08 510.44 385.71 511.64 C 384.45 510.37 379.31 507.27 383.00 513.00
C 379.94 512.13 378.66 511.84 376.00 511.00
C 374.09 514.50 372.19 513.85 370.00 511.00
C 368.44 515.29 361.43 510.93 357.23 512.21 C 352.86 512.05 349.64 513.25 348.00 510.00
C 348.09 516.72 341.33 509.17 339.00 516.00
C 336.94 506.89 326.96 516.64 322.00 509.00
C 324.13 512.54 320.00 511.19 320.00 514.00
C 316.90 511.75 315.35 512.70 313.00 515.00
C 312.57 509.17 305.70 513.77 303.00 511.00
C 303.67 512.82 304.34 515.10 302.00 516.00
C 303.43 510.51 298.73 512.62 297.00 510.00
C 293.08 514.17 282.66 512.96 279.00 509.00
C 279.46 511.10 278.21 512.71 276.00 512.00 Z"/>
</g>
<g fill="#FCFDFC" fill-opacity="1.00" stroke="None">
<path d="
M 444.00 625.00 
C 444.00 635.67 444.00 646.33 444.00 657.00 C 446.45 664.92 438.20 682.94 450.00 683.00 C 493.00 683.00 536.00 683.00 579.00 683.00
C 579.00 671.00 579.00 659.00 579.00 647.00
C 569.09 642.76 559.89 636.59 550.00 632.00
C 514.68 613.33 479.40 594.21 444.00 576.00
C 444.00 592.33 444.00 608.67 444.00 625.00 Z"/>
</g>
<g fill="#4B9D3D" fill-opacity="1.00" stroke="None">
<path d="
M 276.00 627.00 
C 276.00 697.00 276.00 767.00 276.00 837.00
C 435.35 839.33 596.83 837.33 757.00 838.00
C 757.00 766.34 757.00 694.67 757.00 623.00
C 753.44 624.79 751.42 620.42 751.00 626.00
C 745.07 624.83 734.31 625.41 727.00 628.00
C 727.67 621.31 723.68 627.64 721.00 624.00
C 722.74 628.64 715.86 628.85 720.00 625.00
C 712.81 626.02 702.04 626.68 698.00 624.00
C 696.11 625.13 694.27 626.46 693.00 628.00
C 692.99 624.79 691.21 624.47 689.00 624.00
C 689.33 628.51 685.84 627.95 688.00 624.00
C 684.88 627.90 681.53 624.32 678.00 624.00
C 687.19 629.61 668.89 630.14 675.00 624.00
C 670.93 623.71 667.97 627.08 664.00 627.00
C 662.71 621.51 657.44 628.04 656.00 623.00
C 652.92 625.70 649.89 624.67 649.00 621.00
C 648.34 623.56 646.57 625.51 646.00 628.00
C 642.75 625.63 637.40 626.47 634.00 622.00
C 631.90 624.16 631.60 627.29 630.00 623.00
C 624.86 625.88 623.08 624.20 617.25 624.25 C 614.93 628.86 607.49 625.02 612.00 622.00
C 606.32 623.36 599.66 624.46 594.00 627.00
C 594.10 622.99 590.90 624.79 590.00 627.00
C 588.05 619.72 589.44 625.48 586.00 627.00
C 585.00 625.29 586.25 622.70 583.00 623.00
C 582.26 625.50 579.80 626.22 579.00 623.00
C 577.63 627.62 575.15 623.73 572.00 628.00
C 571.57 623.03 568.64 624.17 568.00 628.00
C 565.89 622.14 561.49 625.84 557.92 625.14 C 556.35 623.36 550.01 626.52 550.00 632.00
C 559.89 636.59 569.09 642.76 579.00 647.00
C 579.00 659.00 579.00 671.00 579.00 683.00
C 536.00 683.00 493.00 683.00 450.00 683.00 C 438.20 682.94 446.45 664.92 444.00 657.00 C 444.00 646.33 444.00 635.67 444.00 625.00
C 441.03 623.11 439.37 627.74 440.00 622.00
C 437.71 624.68 435.98 624.97 438.00 621.00
C 435.37 620.63 434.49 623.78 433.00 625.00
C 431.24 622.38 426.77 623.42 427.00 627.00
C 424.62 622.75 419.62 624.55 415.02 624.02 C 410.80 627.59 406.43 623.05 404.00 626.00
C 404.66 621.49 400.64 623.62 402.00 627.00
C 400.52 622.02 397.56 625.40 395.00 627.00
C 393.15 622.20 390.24 625.57 388.00 626.00
C 388.21 620.59 383.51 623.24 384.00 627.00
C 382.60 625.43 381.37 623.62 379.00 623.00
C 371.10 631.35 359.34 620.79 351.00 627.00
C 351.06 620.08 350.30 627.74 347.30 624.29 C 346.76 626.58 340.95 623.05 345.00 627.00
C 341.08 628.57 341.63 624.15 339.00 624.00
C 335.25 629.76 325.82 616.83 324.00 626.00
C 325.45 618.68 319.73 624.56 318.00 626.00
C 314.11 622.31 307.02 628.90 301.00 624.00
C 298.33 625.81 296.09 628.86 296.00 625.00
C 292.89 624.37 294.03 629.62 291.00 629.00
C 291.47 626.08 288.02 625.34 288.00 623.00
C 286.60 629.50 281.23 620.32 281.00 630.00
C 280.43 626.96 279.26 624.34 279.00 622.00
C 274.22 621.22 280.69 629.64 276.00 627.00 Z"/>
</g>
</svg>